/* XPM */
static char *_41a6595ca3a414ad931fcaf1d3afd89AW5iLlVvhuZLrcXM[] = {
/* columns rows colors chars-per-pixel */
"64 64 230 2 ",
"   c #050403",
".  c #0B0905",
"X  c #0B0B0A",
"o  c #070606",
"O  c #110C03",
"+  c #130F0C",
"@  c #1D0D07",
"#  c #141207",
"$  c #14120D",
"%  c #1B150B",
"&  c #1D1A0B",
"*  c #1B1405",
"=  c #110F11",
"-  c #151313",
";  c #191512",
":  c #1C1A14",
">  c #1B1B19",
",  c #171817",
"<  c #0E100D",
"1  c #210F06",
"2  c #261908",
"3  c #32170A",
"4  c #251D17",
"5  c #371C1B",
"6  c #1B241E",
"7  c #322A0D",
"8  c #23221C",
"9  c #292418",
"0  c #332B19",
"q  c #382A17",
"w  c #393417",
"e  c #1E1F21",
"r  c #1D2524",
"t  c #1D2925",
"y  c #222423",
"u  c #2B2523",
"i  c #2C2B25",
"p  c #212C2A",
"a  c #252A26",
"s  c #342422",
"d  c #3C2E29",
"f  c #23322D",
"g  c #2D332D",
"h  c #35332C",
"j  c #3B3625",
"k  c #253433",
"l  c #2C3433",
"z  c #2D3935",
"x  c #2D3B3B",
"c  c #293639",
"v  c #343635",
"b  c #3B3632",
"n  c #323B35",
"m  c #3C3B35",
"M  c #333D3B",
"N  c #3B3C3B",
"B  c #36363C",
"V  c #3E2D33",
"C  c #441C16",
"Z  c #4C241E",
"A  c #473A1C",
"S  c #582F1A",
"D  c #66381F",
"F  c #4E1E2A",
"G  c #482D27",
"H  c #552E2D",
"J  c #582C26",
"K  c #473529",
"L  c #5C332C",
"P  c #573429",
"I  c #443A37",
"U  c #473935",
"Y  c #5C3332",
"T  c #583833",
"R  c #64342C",
"E  c #6D3E2C",
"W  c #653829",
"Q  c #633732",
"!  c #653A31",
"~  c #6C3D35",
"^  c #6D3D3A",
"/  c #6A3733",
"(  c #713D32",
")  c #35413D",
"_  c #3A423C",
"`  c #4E481C",
"'  c #49441E",
"]  c #51491E",
"[  c #51451D",
"{  c #4A4523",
"}  c #474326",
"|  c #534B24",
" . c #544C2A",
".. c #55512A",
"X. c #494639",
"o. c #544639",
"O. c #5F503D",
"+. c #6F402C",
"@. c #69413A",
"#. c #74443B",
"$. c #71442F",
"%. c #393D42",
"&. c #2C3E42",
"*. c #403F44",
"=. c #334141",
"-. c #394441",
";. c #2E4042",
":. c #444444",
">. c #454A45",
",. c #4A4A46",
"<. c #44454B",
"1. c #4A4A4A",
"2. c #474947",
"3. c #544946",
"4. c #59554E",
"5. c #474951",
"6. c #555555",
"7. c #5C5C5D",
"8. c #595954",
"9. c #645447",
"0. c #7C4A41",
"q. c #5D5C61",
"w. c #615F62",
"e. c #626263",
"r. c #6C6C6C",
"t. c #686963",
"y. c #717171",
"u. c #716F72",
"i. c #86554E",
"p. c #8B5954",
"a. c #8E5752",
"s. c #915C56",
"d. c #8A6E53",
"f. c #896E57",
"g. c #897259",
"h. c #986D4A",
"j. c #A6774D",
"k. c #A67A57",
"l. c #9B7E60",
"z. c #A6825D",
"x. c #B6835C",
"c. c #B88A5A",
"v. c #B39156",
"b. c #908372",
"n. c #A88867",
"m. c #B59577",
"M. c #B3916B",
"N. c #C58C5B",
"B. c #C6915B",
"V. c #C19670",
"C. c #CEA47B",
"Z. c #D5A87F",
"A. c #5C4E9B",
"S. c #5F4CA5",
"D. c #B69C82",
"F. c #BAA189",
"G. c #B4B2AD",
"H. c #ACB2A8",
"J. c #CBA580",
"K. c #C8A888",
"L. c #D5AB84",
"P. c #DCB48B",
"I. c #C9A996",
"U. c #D2B190",
"Y. c #E6B98D",
"T. c #F3BB85",
"R. c #ECBE96",
"E. c #E7BA96",
"W. c #F2BE95",
"Q. c #F0B593",
"!. c #D3B3AB",
"~. c #EEBDA7",
"^. c #F3BAA3",
"/. c #DAC188",
"(. c #EBC38B",
"). c #ECC295",
"_. c #EDC49A",
"`. c #E4C59A",
"'. c #F2C094",
"]. c #F3C59B",
"[. c #F7C796",
"{. c #F6C48A",
"}. c #D4C8AF",
"|. c #E9C6A5",
" X c #F2C1A5",
".X c #F8CAA2",
"XX c #F5D5A4",
"oX c #CCCCCB",
"OX c #C8CAC6",
"+X c #D2CECD",
"@X c #D4C6C3",
"#X c #CBD1CC",
"$X c #D3D2CE",
"%X c #CACDD1",
"&X c #C8D3D0",
"*X c #D6D5D5",
"=X c #DDDCDD",
"-X c #D7D6D8",
";X c #D2C6D2",
":X c #E1DDDB",
">X c #DDE1DE",
",X c #DDE0D7",
"<X c #E3E2DE",
"1X c #DFDDE1",
"2X c #E6DAE4",
"3X c #DDE2E4",
"4X c #DFE2E9",
"5X c #E3E3E3",
"6X c #EAEBE6",
"7X c #E4E5E9",
"8X c #E5EAEA",
"9X c #EAEAEA",
"0X c #E9E6E7",
"qX c #F4F4F4",
"wX c #F6F8F6",
"eX c #FCFAF6",
"rX c #F9F6F9",
"tX c #F6FCFB",
"yX c #FAFAFA",
"uX c #FFFAFE",
"iX c #FAFEFE",
"pX c #FDFDFD",
"aX c gray99",
"sX c #FFFDFF",
"dX c #FCFFFF",
"fX c white",
"gX c #FEFEFF",
"hX c #FEFEFD",
"jX c #FFFFFF",
"kX c #F6F6FC",
/* pixels */
"fXfXfXfXfXfXfXfXfXfXfXfXfXfXfXfXfXfXfXfXfXfXfXfXaXfXfXrXaXaXfXtXfXfXfXhXfXfXrXfXfXyXfXfXfXfXwXfXfXfXfXfXfXfXfXfXfXfXfXfXfXfXfXfX",
"fXfXfXfXfXfXfXfXfXfXfXfXfXfXfXfXfXfXfXfXfXfXfXfXfXfXiXfXfXyX2X5X5X>XiXfXaXyXiXiXfXfXfXfXyXfXfXfXfXfXfXfXfXfXfXfXfXfXfXfXfXfXfXfX",
"fXfXfXfXfXfXfXfXfXfXfXfXfXfXfXfXfXfXfXfXfXfXfXfXyXfXtXfXiXoXI 5 u N +XiXiXfXiXtXaXaXfXfXfXfXfXaXfXfXfXfXfXfXfXfXfXfXfXfXfXfXfXfX",
"fXfXfXfXfXfXfXfXfXfXfXfXfXfXfXfXfXfXfXfXfXfXfXfXhXaXfXfX7X8.V Y H H T &XtXaXfXeXfXfXfXaXfXaXaXfXfXfXfXfXfXfXfXfXfXfXfXfXfXfXfXfX",
"fXfXfXfXfXfXfXfXfXfXfXfXfXfXfXfXfXfXfXfXfXfXfXfXfXrXfXiXtXG.4 H R ~ H v &X7XuXaXyXfXfXaXfXfXfXfXfXfXfXfXfXfXfXfXfXfXfXfXfXfXfXfX",
"fXfXfXfXfXfXfXfXfXfXfXfXfXfXfXfXfXfXfXfXfXfXfXfXiXfXtX8XOXm * 1 P ! Y @ ; N oX8XfXfXaXfXhXfXfXyXfXfXfXfXfXfXfXfXfXfXfXfXfXfXfXfX",
"fXfXfXfXfXfXfXfXfXfXfXfXfXfXfXfXfXfXfXfXfXfXfXfXiXtX+Xb d G H G & Z / H % K s b OXfXfXfXyXyXfXfXfXfXfXfXfXfXfXfXfXfXfXfXfXfXfXfX",
"fXfXfXfXfXfXfXfXfXfXfXfXfXfXfXfXfXfXfXfXfXfXfXfXfX+XI H L R ^ H * ! / G 1 H L H N 5XfXfXfXfXfXfXfXfXfXfXfXfXfXfXfXfXfXfXfXfXfXfX",
"fXfXfXfXfXfXfXfXfXfXfXfXfXfXfXfXfXfXfXfXfXfXfXaX+XI T R ~ Q T 3 J @.H 3 L #.R R u >XiXfXrXfXhXfXfXfXfXfXfXfXfXfXfXfXfXfXfXfXfXfX",
"fXfXfXfXfXfXfXfXfXfXfXfXfXfXfXfXrXfXfXfXaXaXfXoXo.H T ^ R / Q L R ! Q L ! i.~ P 5 #XiXrXfXhXhXhXfXfXfXfXfXfXfXfXfXfXfXfXfXfXfXfX",
"fXfXfXfXfXfXfXfXfXfXfXfXfXfXfXfXfXfXfXfXfXyX=XI G L E ~ i.#.~ ^ ^ ! ! 0.i.^ ~ ~ H N 5XfXwXfXfXfXfXfXfXfXfXfXfXfXfXfXfXfXfXfXfXfX",
"fXfXfXfXfXfXfXfXfXfXfXfXfXfXfXfXfXaXyXaXfXfX0Xu R ! ^ / ^ s.s.a.( 0.0.! / R J L Y 9 5XaXfXiXkXfXfXfXfXfXfXfXfXfXfXfXfXfXfXfXfXfX",
"fXfXfXfXfXfXfXfXfXfXfXfXfXfXfXfXaXaXfXfXfXeX2Xy R L ! ~ W ^ ^ #.p.p.^ ^ R W Q Y C u =XaXaXtXfXfXfXfXfXfXfXfXfXfXfXfXfXfXfXfXfXfX",
"fXfXfXfXfXfXfXfXfXfXfXfXfXfXfXfXfXfXfXaXfXfX7Xi H @.W E $.E E ~ ^ ^ ~ +.E E R J Z 9 5XaXfXaXyXfXfXfXfXfXfXfXfXfXfXfXfXfXfXfXfXfX",
"fXfXfXfXfXfXfXfXfXfXfXfXfXfXfXfXaXaXfXfXfXaX:Xu L R D j.x.k.$.P ! W D k.x.j.E C 5 9 2XaXaXfXfXeXfXfXfXfXfXfXfXfXfXfXfXfXfXfXfXfX",
"fXfXfXfXfXfXfXfXfXfXfXfXfXfXfXfXfXfXaXfXaXfX5Xy J W j.N.N.N.j.W J W h.N.N.N.j.S C y 5XaXfXiXhXhXfXfXfXfXfXfXfXfXfXfXfXfXfXfXfXfX",
"fXfXfXfXfXfXfXfXfXfXfXfXfXfXfXfXfXfXfXfXyXfX0Xr F Z v.E.^.`.%.k.x.j.N }.).Q.x.S 5 s =XiXhXaXfXyXfXfXfXfXfXfXfXfXfXfXfXfXfXfXfXfX",
"fXfXfXfXfXfXfXfXfXfXfXfXfXfXfXfXfXfXfXfXfXfX=XN 3 q J.|.XX2XS.I.'.I.A.2X|.W.C.e 5 I >XiXaXfXfXfXfXfXfXfXfXfXfXfXfXfXfXfXfXfXfXfX",
"fXfXfXfXfXfXfXfXfXfXfXfXfXfXfXfXyXfXaXfXfXfXfXoXb & K.[.`.|.!.`.(.R.!.|.`. XY.4 d $XfXtXfXeXfXfXfXfXfXfXfXfXfXfXfXfXfXfXfXfXfXfX",
"fXfXfXfXfXfXfXfXfXfXfXfXfXfXfXfXfXfXyXfXfXwXfXfX*X,.m.'.].Y.[.)..X~.).'.(.'.m.X.%XrXfXfXaXaXeXhXfXfXfXfXfXfXfXfXfXfXfXfXfXfXfXfX",
"fXfXfXfXfXfXfXfXfXfXfXfXfXfXfXfXfXfXfXfXfXfXfXaXtX&X9.z.Y. XR.`.]._.`.~.W.v.8.#XaXiXaXfXrXrXfXfXfXfXfXfXfXfXfXfXfXfXfXfXfXfXfXfX",
"fXfXfXfXfXfXfXfXfXfXfXfXfXfXfXfXyXfXfXfXrXfXfXfXfXtX@XP C.'.R..X).{.|.W.V.K %XaXfXyXfXfXfXaXaXfXfXfXfXfXfXfXfXfXfXfXfXfXfXfXfXfX",
"fXfXfXfXfXfXfXfXfXfXfXfXfXfXfXfXfXfXfXfXfXfXfXfXuXhX2X2.n.Q. XR.^.^.|.Q.x.4.-XfXeXfXfXyXfXfXyXfXfXfXfXfXfXfXfXfXfXfXfXfXfXfXfXfX",
"fXfXfXfXfXfXfXfXfXfXfXfXfXfXfXfXyXfXfXyXfXfXfXyX5X7X3XH.A v./._._.(.(.c.K H.<X3X0XeXyXfXfXiXfXaXfXfXfXfXfXfXfXfXfXfXfXfXfXfXfXfX",
"fXfXfXfXfXfXfXfXfXfXfXfXfXfXfXfXfXhXhXfXfXwX6XoXN r y a . i m.T.T.'.M.0 o y y y M oX0XeXfXiXyXfXfXfXfXfXfXfXfXfXfXfXfXfXfXfXfXfX",
"fXfXfXfXfXfXfXfXfXfXfXfXfXfXfXfXfXhXyXfXkX$Xm r l l l i z l o.M.K.n.O.j k k x l z 6 m oXfXiXfXfXfXfXfXfXfXfXfXfXfXfXfXfXfXfXfXfX",
"fXfXfXfXfXfXfXfXfXfXfXfXfXfXfXfXhXhXeXfX7Xv a B M x -.M x ;.n o.X.X._ ) M z -.n c c e N =XfXfXaXfXfXfXfXfXfXfXfXfXfXfXfXfXfXfXfX",
"fXfXfXfXfXfXfXfXfXfXfXfXfXfXfXfXhXhXhXfX7X_ g l M x z v z &.) z ) z z x ) M f r r r e n 6XfXfXfXfXfXfXfXfXfXfXfXfXfXfXfXfXfXfXfX",
"fXfXfXfXfXfXfXfXfXfXfXfXfXfXfXfXiXfXfXhXeXOX: 9 i z &.N M M ) z ) l ) ) z M p r 8 ; r #XeXhXfXaXfXfXfXfXfXfXfXfXfXfXfXfXfXfXfXfX",
"fXfXfXfXfXfXfXfXfXfXfXfXfXfXfXfXiXfXeXhXfX8Xm b.0 X l n h M _ z M M ) z M M t o 7 b.b <XhXhXkXfXfXfXfXfXfXfXfXfXfXfXfXfXfXfXfXfX",
"fXfXfXfXfXfXfXfXfXfXfXfXfXfXfXfXhXfXfXhXtX3XK F.d.2 k x n ) f _ n N z z ) l y < h.F.K 5XfXqXfXfXfXfXfXfXfXfXfXfXfXfXfXfXfXfXfXfX",
"fXfXfXfXfXfXfXfXfXfXfXfXfXfXfXfXhXhXaXhXiX2XG J.k.2 l &.n ) ) z M M ) x ) z r ; j.K.j 5XyXhXyXfXfXfXfXfXfXfXfXfXfXfXfXfXfXfXfXfX",
"fXfXfXfXfXfXfXfXfXfXfXfXfXfXfXfXhXiXeXfXhX3XM C.k.* c x m n M n z n n M M z 6 $ j.C.B ,XfXtXaXfXfXfXfXfXfXfXfXfXfXfXfXfXfXfXfXfX",
"fXfXfXfXfXfXfXfXfXfXfXfXfXfXfXfXhXtXfXfXeX5Xl C.j.2 c M n n M M ) _ M x M p 6 : z.C.v <XfXiXaXfXfXfXfXfXfXfXfXfXfXfXfXfXfXfXfXfX",
"fXfXfXfXfXfXfXfXfXfXfXfXfXfXfXfXhXiXfXfXhX:Xm L.L.7 l c M z z &.x z %.) f f 8 2 L.C.I >XfXfXfXfXfXfXfXfXfXfXfXfXfXfXfXfXfXfXfXfX",
"fXfXfXfXfXfXfXfXfXfXfXfXfXfXfXfXhXfXaXfXfXoXo.L.`.f.: l ) =.M z x ) M c f 6 1 g.R.L.o.oXfXeXaXaXfXfXfXfXfXfXfXfXfXfXfXfXfXfXfXfX",
"fXfXfXfXfXfXfXfXfXfXfXfXfXfXfXfXhXfXfXhX=X2.F._.Y.z.3 h z z M ) z ) z k f 6 2 z.R.).D.1.<XhXfXfXfXfXfXfXfXfXfXfXfXfXfXfXfXfXfXfX",
"fXfXfXfXfXfXfXfXfXfXfXfXfXfXfXfXyXhXeXhX3Xb J.].].P.d.% z _ v M z ) ) f , % d.Y.).].K.N <XhXeXfXfXfXfXfXfXfXfXfXfXfXfXfXfXfXfXfX",
"fXfXfXfXfXfXfXfXfXfXfXfXfXfXfXfXhXhXyXhX7Xh L.]._._.n.4 k z N M ) g t t t % n._..X'.L.B >XhXiXfXfXfXfXfXfXfXfXfXfXfXfXfXfXfXfXfX",
"fXfXfXfXfXfXfXfXfXfXfXfXfXfXfXfXfXfXhXhX4Xb L._.`.].U.% k l v z f 6 t t , 8 K.]._.'.L.B >XeXiXhXfXfXfXfXfXfXfXfXfXfXfXfXfXfXfXfX",
"fXfXfXfXfXfXfXfXfXfXfXfXfXfXfXfXhXeXfXiX5Xj U.[.'.W.z.@ $ % : , & < 6 - < 2 k.W.{.Y.F.3.5XfXfXhXfXfXfXfXfXfXfXfXfXfXfXfXfXfXfXfX",
"fXfXfXfXfXfXfXfXfXfXfXfXfXfXfXfXfXfXfXfX3X3.D.R.|.P.d.* $ : % =   % ; $ ; O g.P.Y.U.o.OXyXiXyXhXfXfXfXfXfXfXfXfXfXfXfXfXfXfXfXfX",
"fXfXfXfXfXfXfXfXfXfXfXfXfXfXfXfXiXhXhXeXyX*X9.F.K.g.q O X - ; ;   $ $ $ - . q f.z.g.T <XfXiXfXfXfXfXfXfXfXfXfXfXfXfXfXfXfXfXfXfX",
"fXfXfXfXfXfXfXfXfXfXfXfXfXfXfXfXiXfXwXfXfXyX+Xo.G o.G., , = $ + o $ : ; - 4 G.o.0 U $XfXyXfXyXaXfXfXfXfXfXfXfXfXfXfXfXfXfXfXfXfX",
"fXfXfXfXfXfXfXfXfXfXfXfXfXfXfXfXfXfXyXfXaXiXaX7X<X0X-X8 - = ; ;   ; % ; X y 5X3X=X0XaXtXfXhXfXaXfXfXfXfXfXfXfXfXfXfXfXfXfXfXfXfX",
"fXfXfXfXfXfXfXfXfXfXfXfXfXfXfXfXfXwXfXfXfXaXfXiXfXfX7X6 $ - - O   X - ; 4 > 7XiXfXaXfXfXyXeXaXfXfXfXfXfXfXfXfXfXfXfXfXfXfXfXfXfX",
"fXfXfXfXfXfXfXfXfXfXfXfXfXfXfXfXhXfXfXwXhXhXfXfXhXqX0X8 + , - - . $ $ : X 8 2XfXfXfXfXkXfXhXhXfXfXfXfXfXfXfXfXfXfXfXfXfXfXfXfXfX",
"fXfXfXfXfXfXfXfXfXfXfXfXfXfXfXfXhXaXfXyXhXhXfXfXhXfX1X9 # - - $   $ , $ $ 9 :XfXfXaXfXaXhXhXhXhXfXfXfXfXfXfXfXfXfXfXfXfXfXfXfXfX",
"fXfXfXfXfXfXfXfXfXfXfXfXfXfXfXfXfXaXfXfXfXfXfXfXaX6XoX> = , ; % o $ ; ; - 4 oX6XfXfXfXfXaXfXfXfXfXfXfXfXfXfXfXfXfXfXfXfXfXfXfXfX",
"fXfXfXfXfXfXfXfXfXfXfXfXfXfXfXfXyXfXfXyXfXfXfXfX=Xr.4.. - - ; - o $ : < = X 6.y.*XfXfXfXfXfXfXfXfXfXfXfXfXfXfXfXfXfXfXfXfXfXfXfX",
"fXfXfXfXfXfXfXfXfXfXfXfXfXfXfXfXfXwXfXfXfXwX0X=Xy.%.:.. $ - - -   , $ % ; X N 5.r.*X9XfXfXfXfXaXfXfXfXfXfXfXfXfXfXfXfXfXfXfXfXfX",
"fXfXfXfXfXfXfXfXfXfXfXfXfXfXfXfXfXfXfXyXyX=Xu.6.X.1.N - 2 & : $ = - % 2 % ; v <.:.7.y.-XyXfXaXfXfXfXfXfXfXfXfXfXfXfXfXfXfXfXfXfX",
"fXfXfXfXfXfXfXfXfXfXfXfXfXfXfXfXyXfXfXfX:Xt.1.2.1.m % j } } } & a $ } } w j 9 N 1.1.:.t.5XaXfXfXfXfXfXfXfXfXfXfXfXfXfXfXfXfXfXfX",
"fXfXfXfXfXfXfXfXfXfXfXfXfXfXfXfXfXfXfX9Xr.2.:.2.m ; j 2 { ` ..w % } } ..| 2 w & v 1.:.1.y.7XyXfXfXfXfXfXfXfXfXfXfXfXfXfXfXfXfXfX",
"fXfXfXfXfXfXfXfXfXfXfXfXfXfXfXfXyXfXaX0Xq.2.:.*.$ j { ` ` | ..' O } ..` ] {  .j - :.1.:.6.6XfXfXfXfXfXfXfXfXfXfXfXfXfXfXfXfXfXfX",
"fXfXfXfXfXfXfXfXfXfXfXfXfXfXfXfXfXyXfX0X7.*.1.*.# w | ` | ..' A & w | | [  .{ 7 , N 2.:.w.6XfXfXfXfXfXfXfXfXfXfXfXfXfXfXfXfXfXfX",
"fXfXfXfXfXfXfXfXfXfXfXfXfXfXfXfXfXyXfX9Xq.2.2.:.m & 9 w w 0 0 & h & 0 7 w w 0 * N 2.2.2.e.0XrXfXfXfXfXfXfXfXfXfXfXfXfXfXfXfXfXfX",
"fXfXfXfXfXfXfXfXfXfXfXfXfXfXfXfXfXfXfX6Xr.2.<.2.2.v % % o # ; v 1.v $ % . . # _ 1.1.:.:.e.qXfXyXfXfXfXfXfXfXfXfXfXfXfXfXfXfXfXfX",
"fXfXfXfXfXfXfXfXfXfXfXfXfXfXfXfXfXyXfXyX=Xt.2.2.5.*.:.N _ :.:.<.5.1.*.N :.%.:.<.2.N 1.y.=XaXfXfXfXfXfXfXfXfXfXfXfXfXfXfXfXfXfXfX",
"fXfXfXfXfXfXfXfXfXfXfXfXfXfXfXfXyXfXfXfXfX5Xr.6.1.1.:.2.2.1.N 1.<.>.<.6.-.>.1.>.2.7.r.-XaXaXaXfXfXfXfXfXfXfXfXfXfXfXfXfXfXfXfXfX",
"fXfXfXfXfXfXfXfXfXfXfXfXfXfXfXfXfXfXaXfXfXyX0X=Xt.8.>.:.>.>.,.,.1.X.>.:.:.2.:.8.r.-XqXfXfXyXfXyXfXfXfXfXfXfXfXfXfXfXfXfXfXfXfXfX",
"fXfXfXfXfXfXfXfXfXfXfXfXfXfXfXfXfXyXfXfXfXfXfXkXqX-Xr.7.e.<.*.:.:.1.*.1.7.7.u.=X0XfXyXyXfXaXfXfXfXfXfXfXfXfXfXfXfXfXfXfXfXfXfXfX",
"fXfXfXfXfXfXfXfXfXfXfXfXfXfXfXfXyXfXaXfXfXwXfXfXaXaX9X9X-Xr.e.q.7.q.w.y.=X0X0XaXfXfXfXfXfXfXfXfXfXfXfXfXfXfXfXfXfXfXfXfXfXfXfXfX",
"fXfXfXfXfXfXfXfXfXfXfXfXfXfXfXfXfXyXfXfXfXfXfXfXfXfXfXaXyX0X0X6X7X7X5X6XyXhXfXfXfXfXfXfXfXfXaXfXfXfXfXfXfXfXfXfXfXfXfXfXfXfXfXfX"
};
